PathFileType	4	(X/Y/Z)	C:\Users\86182\Documents\cortex\Trimmed_M3_H16.trc
DataRate	CameraRate	NumFrames	NumMarkers	Units	OrigDataRate	OrigDataStartFrame	OrigNumFrames
100.00	100.00	       57	2	mm	100.00	181	       901
Frame#	Time	gripper			box			
		X1	Y1	Z1	X2	Y2	Z2	

181	1.800	268.39484	172.58131	213.25967	269.61096	170.23465	77.18016	
182	1.810	268.39316	172.55661	213.69510	269.90778	170.05898	77.43687	
183	1.820	268.38757	172.53525	214.13187	270.25046	169.86285	77.66730	
184	1.830	268.38071	172.51793	214.56979	270.58286	169.67920	77.90675	
185	1.840	268.37341	172.50531	215.00746	270.82700	169.55093	78.20168	
186	1.850	268.36365	172.49831	215.44237	270.94476	169.49715	78.57069	
187	1.860	268.34912	172.49707	215.87244	270.97482	169.49396	78.98462	
188	1.870	268.32947	172.50027	216.29700	270.97430	169.50746	79.40714	
189	1.880	268.30557	172.50540	216.71701	270.94208	169.53622	79.84294	
190	1.890	268.27795	172.50977	217.13449	270.82086	169.61082	80.33159	
191	1.900	268.24606	172.51205	217.55096	270.57446	169.75113	80.89403	
192	1.910	268.20853	172.51306	217.96622	270.24219	169.93527	81.50021	
193	1.920	268.16547	172.51427	218.37976	269.89941	170.12006	82.10081	
194	1.930	268.12088	172.51634	218.79350	269.59940	170.27391	82.66788	
195	1.940	268.08142	172.51863	219.21124	269.36557	170.38402	83.19675	
196	1.950	268.05228	172.51944	219.63518	269.20364	170.45097	83.69173	
197	1.960	268.03427	172.51726	220.06444	269.10663	170.48322	84.15886	
198	1.970	268.02536	172.51233	220.49680	269.05911	170.49202	84.60511	
199	1.980	268.02344	172.50693	220.93141	269.04416	170.48766	85.03879	
200	1.990	268.02740	172.50304	221.36966	269.05029	170.47708	85.46832	
201	2.000	268.03705	172.50053	221.81343	269.07245	170.46436	85.90021	
202	2.010	268.05231	172.49860	222.26253	269.10681	170.45265	86.33682	
203	2.020	268.07114	172.49825	222.71399	269.14630	170.44466	86.77600	
204	2.030	268.08997	172.50177	223.16393	269.18173	170.44101	87.21339	
205	2.040	268.10669	172.50948	223.60915	269.20700	170.43997	87.64620	
206	2.050	268.12195	172.51817	224.04677	269.22113	170.43930	88.07465	
207	2.060	268.13657	172.52357	224.47440	269.22504	170.43834	88.50028	
208	2.070	268.14981	172.52394	224.89185	269.21811	170.43758	88.92405	
209	2.080	268.16028	172.52132	225.30194	269.19894	170.43715	89.34576	
210	2.090	268.16785	172.51920	225.70901	269.16827	170.43646	89.76455	
211	2.100	268.17365	172.51933	226.11693	269.12979	170.43481	90.18084	
212	2.110	268.17911	172.52121	226.52861	269.08823	170.43188	90.59851	
213	2.120	268.18442	172.52417	226.94637	269.04739	170.42807	91.02339	
214	2.130	268.18817	172.52899	227.37141	269.00970	170.42465	91.45795	
215	2.140	268.18903	172.53708	227.80354	268.97675	170.42310	91.89900	
216	2.150	268.18692	172.54857	228.24178	268.95004	170.42418	92.34149	
217	2.160	268.18253	172.56189	228.68492	268.93109	170.42830	92.78346	
218	2.170	268.17676	172.57527	229.13150	268.91986	170.43573	93.22643	
219	2.180	268.17111	172.58795	229.57954	268.91376	170.44598	93.67104	
220	2.190	268.16669	172.60034	230.02682	268.90933	170.45746	94.11382	
221	2.200	268.16290	172.61351	230.47092	268.90518	170.46860	94.54967	
222	2.210	268.15881	172.62843	230.90938	268.90067	170.47948	94.97701	
223	2.220	268.15393	172.64578	231.34056	268.89374	170.49120	95.39919	
224	2.230	268.14743	172.66615	231.76428	268.88300	170.50328	95.82019	
225	2.240	268.13812	172.69028	232.18173	268.87030	170.51346	96.24022	
226	2.250	268.12546	172.71805	232.59509	268.85834	170.52029	96.65642	
227	2.260	268.11078	172.74709	233.00668	268.84637	170.52490	97.06741	
228	2.270	268.09677	172.77312	233.41808	268.83130	170.52939	97.47517	
229	2.280	268.08640	172.79239	233.83014	268.81311	170.53415	97.88274	
230	2.290	268.08228	172.80354	234.24417	268.79730	170.53705	98.29211	
231	2.300	268.08682	172.80690	234.66182	268.79019	170.53609	98.70501	
232	2.310	268.10187	172.80338	235.08372	268.79315	170.53218	99.12326	
233	2.320	268.12750	172.79471	235.51007	268.80310	170.52904	99.54852	
234	2.330	268.16107	172.78413	235.94249	268.81784	170.53094	99.98217	
235	2.340	268.19754	172.77597	236.38351	268.83865	170.54076	100.42546	
236	2.350	268.23160	172.77419	236.83392	268.86688	170.55948	100.87907	
237	2.360	268.25992	172.78105	237.29184	268.89935	170.58711	101.34191	
